<mxfile host="65bd71144e">
    <diagram id="YXi92mGsGVkk7xHZQcPw" name="Page-1">
        <mxGraphModel dx="1029" dy="521" grid="1" gridSize="10" guides="1" tooltips="1" connect="1" arrows="1" fold="1" page="1" pageScale="1" pageWidth="850" pageHeight="1100" math="0" shadow="0">
            <root>
                <mxCell id="0"/>
                <mxCell id="1" parent="0"/>
                <mxCell id="h5ZpnOoy2hl_21oGgHQ0-13" value="&lt;div&gt;orderRedis&lt;/div&gt;" style="ellipse;whiteSpace=wrap;html=1;fillColor=#f8cecc;strokeColor=#b85450;" parent="1" vertex="1">
                    <mxGeometry x="440" y="250" width="120" height="80" as="geometry"/>
                </mxCell>
                <mxCell id="h5ZpnOoy2hl_21oGgHQ0-14" value="&lt;div&gt;tokenRedis&lt;/div&gt;" style="ellipse;whiteSpace=wrap;html=1;fillColor=#f8cecc;strokeColor=#b85450;" parent="1" vertex="1">
                    <mxGeometry x="280" y="90" width="120" height="80" as="geometry"/>
                </mxCell>
                <mxCell id="h5ZpnOoy2hl_21oGgHQ0-15" value="&lt;div&gt;goodRedis&lt;/div&gt;" style="ellipse;whiteSpace=wrap;html=1;fillColor=#f8cecc;strokeColor=#b85450;" parent="1" vertex="1">
                    <mxGeometry x="430" y="140" width="110" height="70" as="geometry"/>
                </mxCell>
                <mxCell id="h5ZpnOoy2hl_21oGgHQ0-16" value="mysql" style="ellipse;whiteSpace=wrap;html=1;fillColor=#dae8fc;strokeColor=#6c8ebf;" parent="1" vertex="1">
                    <mxGeometry x="40" y="250" width="120" height="80" as="geometry"/>
                </mxCell>
                <mxCell id="h5ZpnOoy2hl_21oGgHQ0-27" style="edgeStyle=orthogonalEdgeStyle;rounded=0;orthogonalLoop=1;jettySize=auto;html=1;entryX=0.5;entryY=0;entryDx=0;entryDy=0;" parent="1" source="h5ZpnOoy2hl_21oGgHQ0-18" target="h5ZpnOoy2hl_21oGgHQ0-19" edge="1">
                    <mxGeometry relative="1" as="geometry"/>
                </mxCell>
                <mxCell id="h5ZpnOoy2hl_21oGgHQ0-18" value="rabbitmq-server" style="ellipse;whiteSpace=wrap;html=1;fillColor=#d5e8d4;strokeColor=#82b366;" parent="1" vertex="1">
                    <mxGeometry x="280" y="390" width="120" height="80" as="geometry"/>
                </mxCell>
                <mxCell id="h5ZpnOoy2hl_21oGgHQ0-19" value="rabbitmq-receiver" style="ellipse;whiteSpace=wrap;html=1;fillColor=#d5e8d4;strokeColor=#82b366;" parent="1" vertex="1">
                    <mxGeometry x="280" y="520" width="120" height="80" as="geometry"/>
                </mxCell>
                <mxCell id="h5ZpnOoy2hl_21oGgHQ0-22" style="edgeStyle=orthogonalEdgeStyle;rounded=0;orthogonalLoop=1;jettySize=auto;html=1;entryX=1;entryY=0.5;entryDx=0;entryDy=0;" parent="1" source="h5ZpnOoy2hl_21oGgHQ0-21" target="h5ZpnOoy2hl_21oGgHQ0-16" edge="1">
                    <mxGeometry relative="1" as="geometry"/>
                </mxCell>
                <mxCell id="h5ZpnOoy2hl_21oGgHQ0-23" style="edgeStyle=orthogonalEdgeStyle;rounded=0;orthogonalLoop=1;jettySize=auto;html=1;entryX=0;entryY=0.5;entryDx=0;entryDy=0;" parent="1" source="h5ZpnOoy2hl_21oGgHQ0-21" target="h5ZpnOoy2hl_21oGgHQ0-13" edge="1">
                    <mxGeometry relative="1" as="geometry"/>
                </mxCell>
                <mxCell id="h5ZpnOoy2hl_21oGgHQ0-24" style="edgeStyle=orthogonalEdgeStyle;rounded=0;orthogonalLoop=1;jettySize=auto;html=1;entryX=0.5;entryY=1;entryDx=0;entryDy=0;" parent="1" source="h5ZpnOoy2hl_21oGgHQ0-21" target="h5ZpnOoy2hl_21oGgHQ0-14" edge="1">
                    <mxGeometry relative="1" as="geometry"/>
                </mxCell>
                <mxCell id="h5ZpnOoy2hl_21oGgHQ0-26" style="edgeStyle=orthogonalEdgeStyle;rounded=0;orthogonalLoop=1;jettySize=auto;html=1;exitX=0.5;exitY=1;exitDx=0;exitDy=0;" parent="1" source="h5ZpnOoy2hl_21oGgHQ0-21" target="h5ZpnOoy2hl_21oGgHQ0-18" edge="1">
                    <mxGeometry relative="1" as="geometry"/>
                </mxCell>
                <mxCell id="h5ZpnOoy2hl_21oGgHQ0-21" value="&lt;div&gt;go-seckill&lt;/div&gt;&lt;div&gt;(main)&lt;br&gt;&lt;/div&gt;" style="ellipse;whiteSpace=wrap;html=1;" parent="1" vertex="1">
                    <mxGeometry x="280" y="250" width="120" height="80" as="geometry"/>
                </mxCell>
                <mxCell id="h5ZpnOoy2hl_21oGgHQ0-29" value="" style="endArrow=classic;html=1;entryX=0;entryY=1;entryDx=0;entryDy=0;" parent="1" target="h5ZpnOoy2hl_21oGgHQ0-15" edge="1">
                    <mxGeometry width="50" height="50" relative="1" as="geometry">
                        <mxPoint x="380" y="260" as="sourcePoint"/>
                        <mxPoint x="430" y="210" as="targetPoint"/>
                    </mxGeometry>
                </mxCell>
                <mxCell id="3" value="" style="endArrow=classic;html=1;exitX=0.033;exitY=0.313;exitDx=0;exitDy=0;exitPerimeter=0;" parent="1" source="h5ZpnOoy2hl_21oGgHQ0-19" target="h5ZpnOoy2hl_21oGgHQ0-16" edge="1">
                    <mxGeometry width="50" height="50" relative="1" as="geometry">
                        <mxPoint x="230" y="490" as="sourcePoint"/>
                        <mxPoint x="130" y="330" as="targetPoint"/>
                    </mxGeometry>
                </mxCell>
                <mxCell id="4" value="" style="endArrow=classic;html=1;" edge="1" parent="1" source="h5ZpnOoy2hl_21oGgHQ0-21">
                    <mxGeometry width="50" height="50" relative="1" as="geometry">
                        <mxPoint x="180" y="220" as="sourcePoint"/>
                        <mxPoint x="200" y="210" as="targetPoint"/>
                    </mxGeometry>
                </mxCell>
                <mxCell id="5" value="config-file server" style="ellipse;whiteSpace=wrap;html=1;fillColor=#d5e8d4;strokeColor=#82b366;" vertex="1" parent="1">
                    <mxGeometry x="80" y="160" width="120" height="80" as="geometry"/>
                </mxCell>
            </root>
        </mxGraphModel>
    </diagram>
</mxfile>